<svg xmlns="http://www.w3.org/2000/svg" width="1280" height="320" viewBox="0 0 1280 320">
  <defs>
    <linearGradient id="bg" x1="0%" y1="0%" x2="100%" y2="100%">
      <stop offset="0%" style="stop-color:#0f172a"/>
      <stop offset="100%" style="stop-color:#1e293b"/>
    </linearGradient>
    <linearGradient id="accent" x1="0%" y1="0%" x2="100%" y2="0%">
      <stop offset="0%" style="stop-color:#3b82f6"/>
      <stop offset="100%" style="stop-color:#8b5cf6"/>
    </linearGradient>
  </defs>
  <rect width="1280" height="320" fill="url(#bg)" rx="0"/>
  <!-- Vault icon -->
  <g transform="translate(440, 80)">
    <rect x="0" y="20" width="80" height="60" rx="8" fill="none" stroke="url(#accent)" stroke-width="3"/>
    <rect x="10" y="30" width="60" height="8" rx="2" fill="#3b82f6" opacity="0.6"/>
    <rect x="10" y="44" width="45" height="8" rx="2" fill="#8b5cf6" opacity="0.6"/>
    <rect x="10" y="58" width="55" height="8" rx="2" fill="#3b82f6" opacity="0.4"/>
    <circle cx="40" cy="10" r="10" fill="none" stroke="url(#accent)" stroke-width="2.5"/>
    <line x1="40" y1="10" x2="40" y2="20" stroke="url(#accent)" stroke-width="2.5"/>
  </g>
  <!-- Title -->
  <text x="540" y="125" font-family="system-ui, -apple-system, sans-serif" font-size="52" font-weight="700" fill="white">pv</text>
  <text x="606" y="125" font-family="system-ui, -apple-system, sans-serif" font-size="24" font-weight="400" fill="#64748b">(promptvault)</text>
  <!-- Subtitle -->
  <text x="440" y="175" font-family="system-ui, -apple-system, sans-serif" font-size="20" fill="#94a3b8">Your Claude Code conversations, searchable forever.</text>
  <!-- Terminal preview -->
  <g transform="translate(340, 200)">
    <rect width="600" height="90" rx="8" fill="#0f172a" stroke="#334155" stroke-width="1"/>
    <circle cx="20" cy="15" r="5" fill="#ef4444"/>
    <circle cx="36" cy="15" r="5" fill="#eab308"/>
    <circle cx="52" cy="15" r="5" fill="#22c55e"/>
    <text x="16" y="48" font-family="monospace" font-size="14" fill="#22c55e">$</text>
    <text x="30" y="48" font-family="monospace" font-size="14" fill="#e2e8f0">pv search "database migration"</text>
    <text x="16" y="72" font-family="monospace" font-size="13" fill="#64748b">Found 20 results across 12 conversations</text>
  </g>
</svg>
